[Header]
FileType HTR
DataType HTRS
FileVersion 1
NumSegments 64
NumFrames 4
DataFrameRate 30
EulerRotationOrder ZYX
CalibrationUnits mm
RotationUnits Degrees
GlobalAxisofGravity Y
BoneLengthAxis Y
ScaleFactor 1.0
[SegmentNames&Hierarchy]
Hips	GLOBAL
Spine	Hips
Spine1	Spine
Spine2	Spine1
Neck	Spine2
Head	Neck
LeftEye	Head
RightEye	Head
LeftShoulder	Spine2
LeftArm	LeftShoulder
LeftForeArm	LeftArm
LeftHand	LeftForeArm
LeftHandThumb1	LeftHand
LeftHandThumb2	LeftHandThumb1
LeftHandThumb3	LeftHandThumb2
LeftHandThumb4	LeftHandThumb3
LeftHandIndex1	LeftHand
LeftHandIndex2	LeftHandIndex1
LeftHandIndex3	LeftHandIndex2
LeftHandIndex4	LeftHandIndex3
LeftHandMiddle1	LeftHand
LeftHandMiddle2	LeftHandMiddle1
LeftHandMiddle3	LeftHandMiddle2
LeftHandMiddle4	LeftHandMiddle3
LeftHandRing1	LeftHand
LeftHandRing2	LeftHandRing1
LeftHandRing3	LeftHandRing2
LeftHandRing4	LeftHandRing3
LeftHandPinky1	LeftHand
LeftHandPinky2	LeftHandPinky1
LeftHandPinky3	LeftHandPinky2
LeftHandPinky4	LeftHandPinky3
RightShoulder	Spine2
RightArm	RightShoulder
RightForeArm	RightArm
RightHand	RightForeArm
RightHandPinky1	RightHand
RightHandPinky2	RightHandPinky1
RightHandPinky3	RightHandPinky2
RightHandPinky4	RightHandPinky3
RightHandRing1	RightHand
RightHandRing2	RightHandRing1
RightHandRing3	RightHandRing2
RightHandRing4	RightHandRing3
RightHandMiddle1	RightHand
RightHandMiddle2	RightHandMiddle1
RightHandMiddle3	RightHandMiddle2
RightHandMiddle4	RightHandMiddle3
RightHandIndex1	RightHand
RightHandIndex2	RightHandIndex1
RightHandIndex3	RightHandIndex2
RightHandIndex4	RightHandIndex3
RightHandThumb1	RightHand
RightHandThumb2	RightHandThumb1
RightHandThumb3	RightHandThumb2
RightHandThumb4	RightHandThumb3
LeftUpLeg	Hips
LeftLeg	LeftUpLeg
LeftFoot	LeftLeg
LeftToeBase	LeftFoot
RightUpLeg	Hips
RightLeg	RightUpLeg
RightFoot	RightLeg
RightToeBase	RightFoot
[BasePosition]
Hips	0	0	0	0	0	0	1
Spine	0	0	0	0	0	0	1
Spine1	0	0	0	0	0	0	1
Spine2	0	0	0	0	0	0	1
Neck	0	0	0	0	0	0	1
Head	0	0	0	0	0	0	1
LeftEye	0	0	0	0	0	0	1
RightEye	0	0	0	0	0	0	1
LeftShoulder	0	0	0	0	0	0	1
LeftArm	0	0	0	0	0	0	1
LeftForeArm	0	0	0	0	0	0	1
LeftHand	0	0	0	0	0	0	1
LeftHandThumb1	0	0	0	0	0	0	1
LeftHandThumb2	0	0	0	0	0	0	1
LeftHandThumb3	0	0	0	0	0	0	1
LeftHandThumb4	0	0	0	0	0	0	1
LeftHandIndex1	0	0	0	0	0	0	1
LeftHandIndex2	0	0	0	0	0	0	1
LeftHandIndex3	0	0	0	0	0	0	1
LeftHandIndex4	0	0	0	0	0	0	1
LeftHandMiddle1	0	0	0	0	0	0	1
LeftHandMiddle2	0	0	0	0	0	0	1
LeftHandMiddle3	0	0	0	0	0	0	1
LeftHandMiddle4	0	0	0	0	0	0	1
LeftHandRing1	0	0	0	0	0	0	1
LeftHandRing2	0	0	0	0	0	0	1
LeftHandRing3	0	0	0	0	0	0	1
LeftHandRing4	0	0	0	0	0	0	1
LeftHandPinky1	0	0	0	0	0	0	1
LeftHandPinky2	0	0	0	0	0	0	1
LeftHandPinky3	0	0	0	0	0	0	1
LeftHandPinky4	0	0	0	0	0	0	1
RightShoulder	0	0	0	0	0	0	1
RightArm	0	0	0	0	0	0	1
RightForeArm	0	0	0	0	0	0	1
RightHand	0	0	0	0	0	0	1
RightHandPinky1	0	0	0	0	0	0	1
RightHandPinky2	0	0	0	0	0	0	1
RightHandPinky3	0	0	0	0	0	0	1
RightHandPinky4	0	0	0	0	0	0	1
RightHandRing1	0	0	0	0	0	0	1
RightHandRing2	0	0	0	0	0	0	1
RightHandRing3	0	0	0	0	0	0	1
RightHandRing4	0	0	0	0	0	0	1
RightHandMiddle1	0	0	0	0	0	0	1
RightHandMiddle2	0	0	0	0	0	0	1
RightHandMiddle3	0	0	0	0	0	0	1
RightHandMiddle4	0	0	0	0	0	0	1
RightHandIndex1	0	0	0	0	0	0	1
RightHandIndex2	0	0	0	0	0	0	1
RightHandIndex3	0	0	0	0	0	0	1
RightHandIndex4	0	0	0	0	0	0	1
RightHandThumb1	0	0	0	0	0	0	1
RightHandThumb2	0	0	0	0	0	0	1
RightHandThumb3	0	0	0	0	0	0	1
RightHandThumb4	0	0	0	0	0	0	1
LeftUpLeg	0	0	0	0	0	0	1
LeftLeg	0	0	0	0	0	0	1
LeftFoot	0	0	0	0	0	0	1
LeftToeBase	0	0	0	0	0	0	1
RightUpLeg	0	0	0	0	0	0	1
RightLeg	0	0	0	0	0	0	1
RightFoot	0	0	0	0	0	0	1
RightToeBase	0	0	0	0	0	0	1
[Hips]
117	-13.32273483	1011.390991	5.038719177	5.467483521	-2.036749125	-8.922257423	1.0
118	-13.75012398	1011.708374	5.602183342	5.22537899	-2.067354441	-8.800222397	1.0
119	-14.24729824	1012.271851	6.122293472	4.971528053	-2.072503805	-8.669347763	1.0
120	-14.616745	1012.980652	6.741347313	4.655151367	-2.120598555	-8.490298271	1.0
[Spine]
117	0	101.8159943	1.315000057	4.942979336	1.620669961	1.860899091	1.0
118	0	101.8159943	1.315000057	4.907962799	1.6432271	1.874390244	1.0
119	0	101.8159943	1.315000057	4.862956524	1.655684352	1.889026403	1.0
120	0	101.8159943	1.315000057	4.804305553	1.662255168	1.911205649	1.0
[Spine1]
117	0	100.8349991	-10.00800037	2.813370466	0.5745464563	0.2119674981	1.0
118	0	100.8349991	-10.00800037	2.770509481	0.6121364832	0.2362833321	1.0
119	0	100.8349991	-10.00800037	2.719526768	0.6348463297	0.2641364932	1.0
120	0	100.8349991	-10.00800037	2.654074192	0.6505193114	0.3018901944	1.0
[Spine2]
117	0	91	-13.73399925	2.793419361	0.619895041	0.2248946279	1.0
118	0	91	-13.73399925	2.750322104	0.6568925977	0.2491166443	1.0
119	0	91	-13.73399925	2.699214697	0.6792325377	0.2768385112	1.0
120	0	91	-13.73399925	2.633641005	0.6941937804	0.3144705296	1.0
[Neck]
117	0	166.7169952	-25.16200066	6.187013626	1.082197547	-3.464021206	1.0
118	0	166.7169952	-25.16200066	6.170125008	1.075558782	-3.256946564	1.0
119	0	166.7169952	-25.16200066	6.205821037	1.040698528	-3.017039776	1.0
120	0	166.7169952	-25.16200066	6.272219658	0.9993764758	-2.804829121	1.0
[Head]
117	0	96.17900085	16.84999847	-22.18496513	5.675104618	-0.08401890844	1.0
118	0	96.17900085	16.84999847	-21.70806503	5.416619778	0.01894317009	1.0
119	0	96.17900085	16.84999847	-21.06939507	5.039725304	0.05872379616	1.0
120	0	96.17900085	16.84999847	-20.31923294	4.668012142	-0.01556043047	1.0
[LeftEye]
117	30.6760006	64.09500122	92.83599854	0	0	0	1.0
118	30.6760006	64.09500122	92.83599854	0	0	0	1.0
119	30.6760006	64.09500122	92.83599854	0	0	0	1.0
120	30.6760006	64.09500122	92.83599854	0	0	0	1.0
[RightEye]
117	-30.6760006	64.09500122	92.83499908	0	0	0	1.0
118	-30.6760006	64.09500122	92.83499908	0	0	0	1.0
119	-30.6760006	64.09500122	92.83499908	0	0	0	1.0
120	-30.6760006	64.09500122	92.83499908	0	0	0	1.0
[LeftShoulder]
117	45.70400238	109.4599991	-26.28000069	5.532173157	-17.27557182	-16.16141129	1.0
118	45.70400238	109.4599991	-26.28000069	5.484859943	-17.13249779	-16.11447144	1.0
119	45.70400238	109.4599991	-26.28000069	5.438933372	-16.97805214	-16.09279633	1.0
120	45.70400238	109.4599991	-26.28000069	5.397404194	-16.84757805	-16.05753899	1.0
[LeftArm]
117	105.923996	-5.24600029	-22.32099915	18.426054	-11.51728249	-60.64406204	1.0
118	105.923996	-5.24600029	-22.32099915	18.06336594	-11.13246536	-60.93780899	1.0
119	105.923996	-5.24600029	-22.32099915	17.60308075	-10.73242378	-61.18523026	1.0
120	105.923996	-5.24600029	-22.32099915	17.12190247	-10.27804756	-61.38341141	1.0
[LeftForeArm]
117	278.414978	-0.0009999999311	0	1.769776645e-06	-3.410770893	-0.0002232977131	1.0
118	278.414978	-0.0009999999311	0	1.943990355e-07	-3.07397294	-0.0002229095116	1.0
119	278.414978	-0.0009999999311	0	-1.392487775e-06	-2.711376667	-0.000208430356	1.0
120	278.414978	-0.0009999999311	0	-2.067394234e-06	-2.332059622	-0.0001981701935	1.0
[LeftHand]
117	283.2879944	0	0	-32.85329437	1.241309762	5.468905926	1.0
118	283.2879944	0	0	-33.3918457	0.6687332392	5.497745514	1.0
119	283.2879944	0	0	-33.69898224	0.1159102768	5.463282108	1.0
120	283.2879944	0	0	-33.76723099	-0.3939819634	5.129264355	1.0
[LeftHandThumb1]
117	24.6609993	-15.75	26.8239994	-5.60399437	1.748704553	7.878106594	1.0
118	24.6609993	-15.75	26.8239994	-5.434468269	1.983062267	7.923299313	1.0
119	24.6609993	-15.75	26.8239994	-4.914384842	2.145948648	7.655200958	1.0
120	24.6609993	-15.75	26.8239994	-4.299042702	2.253714561	7.264385223	1.0
[LeftHandThumb2]
117	32.29800034	-18.64699936	18.64699936	19.70240784	19.90481186	17.58914375	1.0
118	32.29800034	-18.64699936	18.64699936	19.71345139	19.65899086	17.64083481	1.0
119	32.29800034	-18.64699936	18.64699936	19.73699951	19.29198074	17.87603569	1.0
120	32.29800034	-18.64699936	18.64699936	19.7634964	18.91512489	18.11848831	1.0
[LeftHandThumb3]
117	26.52600098	-15.31499958	15.31499958	-12.33577251	3.792406321	9.798464775	1.0
118	26.52600098	-15.31499958	15.31499958	-12.44340801	3.916913509	9.933211327	1.0
119	26.52600098	-15.31499958	15.31499958	-12.58487892	4.107955456	10.01820374	1.0
120	26.52600098	-15.31499958	15.31499958	-12.71134758	4.284563065	10.0746994	1.0
[LeftHandThumb4]
117	19.54599953	-11.28499985	11.28499985	0	0	0	1.0
118	19.54599953	-11.28499985	11.28499985	0	0	0	1.0
119	19.54599953	-11.28499985	11.28499985	0	0	0	1.0
120	19.54599953	-11.28499985	11.28499985	0	0	0	1.0
[LeftHandIndex1]
117	91.09299469	-5.170999527	22.60099792	0.07277476043	-0.5924094319	-11.11846828	1.0
118	91.09299469	-5.170999527	22.60099792	0.1832886487	-0.6034553647	-10.77277088	1.0
119	91.09299469	-5.170999527	22.60099792	0.2874545455	-0.6039527655	-10.52851486	1.0
120	91.09299469	-5.170999527	22.60099792	0.3667179942	-0.602996707	-10.35315323	1.0
[LeftHandIndex2]
117	36.76399994	0	0	-0.2564739287	1.712151647	-17.03735161	1.0
118	36.76399994	0	0	-0.2573411763	1.714983344	-17.06640244	1.0
119	36.76399994	0	0	-0.2583727837	1.718339801	-17.10082817	1.0
120	36.76399994	0	0	-0.2593607605	1.721545935	-17.13372612	1.0
[LeftHandIndex3]
117	28.83100128	0	0	-0.05269702896	0.7831141949	-7.699647903	1.0
118	28.83100128	0	0	-0.05309189856	0.7860233188	-7.728409767	1.0
119	28.83100128	0	0	-0.05356118083	0.7894729376	-7.762556076	1.0
120	28.83100128	0	0	-0.05401229858	0.7927739024	-7.795233727	1.0
[LeftHandIndex4]
117	23.92700005	0	0	0	0	0	1.0
118	23.92700005	0	0	0	0	0	1.0
119	23.92700005	0	0	0	0	0	1.0
120	23.92700005	0	0	0	0	0	1.0
[LeftHandMiddle1]
117	95.33399963	0	0	-1.125101566	2.928386927	-20.37713051	1.0
118	95.33399963	0	0	-1.130298257	2.910117149	-20.44756317	1.0
119	95.33399963	0	0	-1.114259124	2.867220879	-20.2321434	1.0
120	95.33399963	0	0	-1.098117113	2.834369183	-20.0148468	1.0
[LeftHandMiddle2]
117	36.98199844	0	0	-0.2405829132	1.659432292	-16.49715805	1.0
118	36.98199844	0	0	-0.2412908077	1.661828637	-16.52170563	1.0
119	36.98199844	0	0	-0.2414657772	1.662438035	-16.52792358	1.0
120	36.98199844	0	0	-0.2422513962	1.665063381	-16.55480003	1.0
[LeftHandMiddle3]
117	29.50900078	0	0	-0.2706307769	1.757674932	-17.5050869	1.0
118	29.50900078	0	0	-0.2713928819	1.760083437	-17.52983856	1.0
119	29.50900078	0	0	-0.2715882957	1.760720372	-17.53636932	1.0
120	29.50900078	0	0	-0.2724253833	1.763350487	-17.56344795	1.0
[LeftHandMiddle4]
117	28.3390007	0	0	0	0	0	1.0
118	28.3390007	0	0	0	0	0	1.0
119	28.3390007	0	0	0	0	0	1.0
120	28.3390007	0	0	0	0	0	1.0
[LeftHandRing1]
117	91.04499817	-0.4390000105	-18.65100098	-1.557495236	3.70522213	-25.89827156	1.0
118	91.04499817	-0.4390000105	-18.65100098	-1.566521287	3.713595867	-26.00836372	1.0
119	91.04499817	-0.4390000105	-18.65100098	-1.574452639	3.720862865	-26.10490799	1.0
120	91.04499817	-0.4390000105	-18.65100098	-1.579424858	3.72712326	-26.16537857	1.0
[LeftHandRing2]
117	31.54000092	0	0	-0.5902628303	2.558637142	-25.97711182	1.0
118	31.54000092	0	0	-0.5895578861	2.557193756	-25.96131516	1.0
119	31.54000092	0	0	-0.5881245136	2.554281473	-25.92945099	1.0
120	31.54000092	0	0	-0.5852180719	2.548270702	-25.86390305	1.0
[LeftHandRing3]
117	29.37700081	0	0	-0.4623226225	2.277648687	-22.94552231	1.0
118	29.37700081	0	0	-0.4616810977	2.276133299	-22.92934799	1.0
119	29.37700081	0	0	-0.4603838623	2.273098946	-22.89696503	1.0
120	29.37700081	0	0	-0.4577675164	2.266862631	-22.8305912	1.0
[LeftHandRing4]
117	26.47500038	0	0	0	0	0	1.0
118	26.47500038	0	0	0	0	0	1.0
119	26.47500038	0	0	0	0	0	1.0
120	26.47500038	0	0	0	0	0	1.0
[LeftHandPinky1]
117	80.77799988	-4.887000084	-38.06099701	-4.14654541	4.551463604	-38.88326263	1.0
118	80.77799988	-4.887000084	-38.06099701	-3.931114674	4.727284431	-38.49027252	1.0
119	80.77799988	-4.887000084	-38.06099701	-3.696184874	4.88011837	-37.81946945	1.0
120	80.77799988	-4.887000084	-38.06099701	-3.473154306	4.992599487	-36.98403168	1.0
[LeftHandPinky2]
117	36	0	0	-0.44588539	2.23845458	-22.52832413	1.0
118	36	0	0	-0.4332652688	2.207804203	-22.20293427	1.0
119	36	0	0	-0.4168974757	2.167543173	-21.77639389	1.0
120	36	0	0	-0.4000050128	2.124550581	-21.3230114	1.0
[LeftHandPinky3]
117	21.14200211	0	0	-0.4113791883	2.153445959	-21.62779427	1.0
118	21.14200211	0	0	-0.3992410302	2.122596025	-21.30243874	1.0
119	21.14200211	0	0	-0.3835096657	2.082083464	-20.87594604	1.0
120	21.14200211	0	0	-0.3672968745	2.038832188	-20.42261124	1.0
[LeftHandPinky4]
117	19.75699997	0	0	0	0	0	1.0
118	19.75699997	0	0	0	0	0	1.0
119	19.75699997	0	0	0	0	0	1.0
120	19.75699997	0	0	0	0	0	1.0
[RightShoulder]
117	-45.70000076	109.4620056	-26.28000069	6.004374504	18.80145073	13.07581711	1.0
118	-45.70000076	109.4620056	-26.28000069	6.041325569	18.97443581	13.03181362	1.0
119	-45.70000076	109.4620056	-26.28000069	6.042509079	19.00915337	12.97953224	1.0
120	-45.70000076	109.4620056	-26.28000069	6.028672218	18.96401787	12.96277237	1.0
[RightArm]
117	-105.9280014	-5.248000145	-22.32099915	29.42321587	9.928980827	63.04189301	1.0
118	-105.9280014	-5.248000145	-22.32099915	28.78101349	9.051391602	62.57964325	1.0
119	-105.9280014	-5.248000145	-22.32099915	28.35288048	8.257541656	62.14910889	1.0
120	-105.9280014	-5.248000145	-22.32099915	28.27641296	7.600913525	61.69992828	1.0
[RightForeArm]
117	-278.414978	0	0	4.145966614e-06	11.30740738	2.594866055e-05	1.0
118	-278.414978	0	0	-3.533029712e-06	10.73194599	-7.598871576e-08	1.0
119	-278.414978	0	0	-1.151983633e-05	10.25186539	-1.181198604e-05	1.0
120	-278.414978	0	0	-1.615444125e-05	9.916690826	-1.637561036e-05	1.0
[RightHand]
117	-283.2879944	0	0.0009999999311	-21.84745598	4.074543953	1.650709629	1.0
118	-283.2879944	0	0.0009999999311	-22.45929718	3.848937273	2.329404354	1.0
119	-283.2879944	0	0.0009999999311	-22.82216454	3.722733498	2.387104988	1.0
120	-283.2879944	0	0.0009999999311	-22.98652458	3.579373121	2.429730892	1.0
[RightHandPinky1]
117	-80.76699829	-4.885000229	-38.06000137	-2.564876795	-4.688904762	39.30616379	1.0
118	-80.76699829	-4.885000229	-38.06000137	-2.483555794	-4.686439037	38.36476135	1.0
119	-80.76699829	-4.885000229	-38.06000137	-2.419262409	-4.70956707	37.64371872	1.0
120	-80.76699829	-4.885000229	-38.06000137	-2.35964489	-4.72992897	36.96766663	1.0
[RightHandPinky2]
117	-36	0	0.0009999999311	-0.259239465	-1.529106617	19.26312065	1.0
118	-36	0	0.0009999999311	-0.253934592	-1.51382041	19.0632267	1.0
119	-36	0	0.0009999999311	-0.2491722703	-1.499951243	18.88205719	1.0
120	-36	0	0.0009999999311	-0.2453202307	-1.48865366	18.73458481	1.0
[RightHandPinky3]
117	-21.14200211	0	0	-0.2350461036	-1.457978845	18.31524467	1.0
118	-21.14200211	0	0	-0.2300570905	-1.442835927	18.11816025	1.0
119	-21.14200211	0	0	-0.2256306708	-1.429221153	17.94134331	1.0
120	-21.14200211	0	0	-0.2220624089	-1.418163538	17.79785156	1.0
[RightHandPinky4]
117	-19.75699997	0	0	0	0	0	1.0
118	-19.75699997	0	0	0	0	0	1.0
119	-19.75699997	0	0	0	0	0	1.0
120	-19.75699997	0	0	0	0	0	1.0
[RightHandRing1]
117	-91.03599548	-0.4390000105	-18.65100098	-1.942840934	-2.558456898	32.94486618	1.0
118	-91.03599548	-0.4390000105	-18.65100098	-1.871551633	-2.595215797	32.02245331	1.0
119	-91.03599548	-0.4390000105	-18.65100098	-1.819206238	-2.630439043	31.33945847	1.0
120	-91.03599548	-0.4390000105	-18.65100098	-1.774819136	-2.633930206	30.75567245	1.0
[RightHandRing2]
117	-31.54000092	0	0	-0.6483629942	-2.36498332	30.65822411	1.0
118	-31.54000092	0	0	-0.6146496534	-2.307214975	29.83120537	1.0
119	-31.54000092	0	0	-0.5887846947	-2.26138401	29.18052292	1.0
120	-31.54000092	0	0	-0.5707625747	-2.229007721	28.72240067	1.0
[RightHandRing3]
117	-29.37700081	0	0	-0.5275938511	-2.148394823	27.59194946	1.0
118	-29.37700081	0	0	-0.4970659912	-2.088986158	26.76617813	1.0
119	-29.37700081	0	0	-0.4737281799	-2.041895866	26.11657333	1.0
120	-29.37700081	0	0	-0.457482338	-2.008628845	25.65899849	1.0
[RightHandRing4]
117	-26.47500038	0	0	0	0	0	1.0
118	-26.47500038	0	0	0	0	0	1.0
119	-26.47500038	0	0	0	0	0	1.0
120	-26.47500038	0	0	0	0	0	1.0
[RightHandMiddle1]
117	-95.32500458	0	0	-1.230797291	-3.892095089	23.22800255	1.0
118	-95.32500458	0	0	-1.20460701	-3.756842375	22.846241	1.0
119	-95.32500458	0	0	-1.183873773	-3.667363644	22.54384422	1.0
120	-95.32500458	0	0	-1.160813332	-3.587509394	22.20303345	1.0
[RightHandMiddle2]
117	-36.98199844	0	0	-0.2485133708	-1.498012781	18.83701134	1.0
118	-36.98199844	0	0	-0.2469290793	-1.493383884	18.77675438	1.0
119	-36.98199844	0	0	-0.2464927435	-1.492104769	18.75996399	1.0
120	-36.98199844	0	0	-0.2465118915	-1.492160439	18.7605896	1.0
[RightHandMiddle3]
117	-29.50900078	0	0	-0.2756012678	-1.577207446	19.84752464	1.0
118	-29.50900078	0	0	-0.2739396989	-1.572578788	19.78680229	1.0
119	-29.50900078	0	0	-0.2734722495	-1.57128489	19.76979256	1.0
120	-29.50900078	0	0	-0.2734836936	-1.571323156	19.77026749	1.0
[RightHandMiddle4]
117	-28.3390007	0	0.0009999999311	0	0	0	1.0
118	-28.3390007	0	0.0009999999311	0	0	0	1.0
119	-28.3390007	0	0.0009999999311	0	0	0	1.0
120	-28.3390007	0	0.0009999999311	0	0	0	1.0
[RightHandIndex1]
117	-91.08300018	-5.167999744	22.60099792	0.5060643554	-1.703243017	10.54568672	1.0
118	-91.08300018	-5.167999744	22.60099792	0.4840990901	-1.531256437	10.38842106	1.0
119	-91.08300018	-5.167999744	22.60099792	0.4684119225	-1.408034682	10.2780838	1.0
120	-91.08300018	-5.167999744	22.60099792	0.4618353844	-1.291636944	10.05653	1.0
[RightHandIndex2]
117	-36.76399994	0	0	-0.1811530739	-1.283794641	16.06263161	1.0
118	-36.76399994	0	0	-0.1819975227	-1.286762118	16.10079765	1.0
119	-36.76399994	0	0	-0.1824748814	-1.28839159	16.12176132	1.0
120	-36.76399994	0	0	-0.1827206761	-1.289218307	16.13240242	1.0
[RightHandIndex3]
117	-28.83100128	0	0	-0.03177262843	-0.542140305	6.709101677	1.0
118	-28.83100128	0	0	-0.03214309737	-0.5452154875	6.747245789	1.0
119	-28.83100128	0	0	-0.03234305978	-0.5469011068	6.76819849	1.0
120	-28.83100128	0	0	-0.03244330361	-0.5477552414	6.77883482	1.0
[RightHandIndex4]
117	-23.92700005	0	0	0	0	0	1.0
118	-23.92700005	0	0	0	0	0	1.0
119	-23.92700005	0	0	0	0	0	1.0
120	-23.92700005	0	0	0	0	0	1.0
[RightHandThumb1]
117	-24.64799881	-15.72700024	26.82600021	-2.0522964	-0.3182591796	2.383006096	1.0
118	-24.64799881	-15.72700024	26.82600021	-2.009768963	-0.4679071009	2.381981373	1.0
119	-24.64799881	-15.72700024	26.82600021	-1.970651865	-0.6301553845	2.49587059	1.0
120	-24.64799881	-15.72700024	26.82600021	-1.948369265	-0.6787300706	2.363690853	1.0
[RightHandThumb2]
117	-32.29800034	-18.64699936	18.64699936	22.40253639	-24.01977348	-24.35527611	1.0
118	-32.29800034	-18.64699936	18.64699936	22.2780838	-23.91686058	-24.2938652	1.0
119	-32.29800034	-18.64699936	18.64699936	22.18876648	-23.84366989	-24.24944496	1.0
120	-32.29800034	-18.64699936	18.64699936	22.04550552	-23.72366524	-24.1797123	1.0
[RightHandThumb3]
117	-26.52600098	-15.31399918	15.31399918	-15.16569996	-5.637721539	-11.14815807	1.0
118	-26.52600098	-15.31399918	15.31399918	-15.1378336	-5.713069916	-11.15888214	1.0
119	-26.52600098	-15.31399918	15.31399918	-15.12007046	-5.766904831	-11.1660223	1.0
120	-26.52600098	-15.31399918	15.31399918	-15.09375286	-5.828993797	-11.17570686	1.0
[RightHandThumb4]
117	-19.54599953	-11.28499985	11.28499985	0	0	0	1.0
118	-19.54599953	-11.28499985	11.28499985	0	0	0	1.0
119	-19.54599953	-11.28499985	11.28499985	0	0	0	1.0
120	-19.54599953	-11.28499985	11.28499985	0	0	0	1.0
[LeftUpLeg]
117	82.07800293	-67.51699829	-15.99599934	-27.58442307	18.11238098	11.30967236	1.0
118	82.07800293	-67.51699829	-15.99599934	-27.18153	18.08982849	11.28822899	1.0
119	82.07800293	-67.51699829	-15.99599934	-26.74264336	18.08710289	11.26531124	1.0
120	82.07800293	-67.51699829	-15.99599934	-26.14802933	18.0496521	11.21061325	1.0
[LeftLeg]
117	0	-443.7049866	2.845999956	27.45806313	-3.042845249	2.891822815	1.0
118	0	-443.7049866	2.845999956	27.28555489	-3.052875519	2.907469273	1.0
119	0	-443.7049866	2.845999956	27.03072739	-3.084034443	2.893897533	1.0
120	0	-443.7049866	2.845999956	26.66055489	-3.056337833	2.918404579	1.0
[LeftFoot]
117	0	-444.2789917	-29.8219986	-1.773477674	0.3883755207	-7.668814659	1.0
118	0	-444.2789917	-29.8219986	-1.768725038	0.3843365312	-7.723692894	1.0
119	0	-444.2789917	-29.8219986	-1.654006243	0.3929786086	-7.769809246	1.0
120	0	-444.2789917	-29.8219986	-1.562439919	0.4007261395	-7.812371731	1.0
[LeftToeBase]
117	0	-87.28699493	107.1060028	-4.214424133	8.352215559e-07	-1.397480787e-06	1.0
118	0	-87.28699493	107.1060028	-4.226923466	-1.429154253e-07	-3.04050991e-06	1.0
119	0	-87.28699493	107.1060028	-4.233258724	-4.163433687e-07	-2.768660124e-06	1.0
120	0	-87.28699493	107.1060028	-4.239731789	-8.677799315e-07	-2.099743824e-06	1.0
[RightUpLeg]
117	-82.07800293	-67.51699829	-15.99599934	-15.65053463	-6.902296543	12.50483894	1.0
118	-82.07800293	-67.51699829	-15.99599934	-15.33362865	-7.026581764	12.34647274	1.0
119	-82.07800293	-67.51699829	-15.99599934	-14.94573593	-7.167612553	12.17112541	1.0
120	-82.07800293	-67.51699829	-15.99599934	-14.45323086	-7.33708477	11.92062378	1.0
[RightLeg]
117	0	-443.7049866	2.861999989	19.44071007	-8.171224594	-7.301941872	1.0
118	0	-443.7049866	2.861999989	19.39510536	-8.187624931	-7.256864548	1.0
119	0	-443.7049866	2.861999989	19.21957397	-8.224691391	-7.179715633	1.0
120	0	-443.7049866	2.861999989	18.98571205	-8.268831253	-7.087787628	1.0
[RightFoot]
117	0	-444.2770081	-29.83799934	-7.772277355	-6.921677113	3.661190271	1.0
118	0	-444.2770081	-29.83799934	-7.815575123	-6.843236923	3.667738676	1.0
119	0	-444.2770081	-29.83799934	-7.765460014	-6.757123947	3.692397833	1.0
120	0	-444.2770081	-29.83799934	-7.715159416	-6.609501362	3.698233128	1.0
[RightToeBase]
117	0	-87.28699493	107.1060028	-6.989202499	-9.641592413e-08	-1.039245262e-06	1.0
118	0	-87.28699493	107.1060028	-6.991117001	6.201785254e-06	1.229572831e-06	1.0
119	0	-87.28699493	107.1060028	-6.99374342	-4.231884759e-06	-3.677479299e-08	1.0
120	0	-87.28699493	107.1060028	-6.994014263	-1.23048012e-05	-1.484194627e-06	1.0
[EndOfFile]
